<?xml version="1.0" encoding="utf-8"?>
<!-- Generator: Adobe Illustrator 25.2.3, SVG Export Plug-In . SVG Version: 6.00 Build 0)  -->
<svg version="1.1" id="Layer_1" xmlns="http://www.w3.org/2000/svg" xmlns:xlink="http://www.w3.org/1999/xlink" x="0px" y="0px"
	 width="350.4px" height="45.5px" viewBox="0 0 350.4 45.5" style="enable-background:new 0 0 350.4 45.5;" xml:space="preserve">
<style type="text/css">
	.st0{fill:#17629E;}
	.st1{fill:#EF4136;}
</style>
<g>
	<path class="st0" d="M1.9,14.3V7.5H0V5.8h1.9v-3l2.2-0.6v3.6h3.2v1.7H4.2v6.7c0,1.5,0.4,2.4,1.7,2.4c0.6,0,1-0.1,1.3-0.2l0.1,1.7
		c-0.4,0.2-1.1,0.3-2,0.3c-1.1,0-1.9-0.3-2.5-1C2.2,16.9,1.9,15.8,1.9,14.3z"/>
	<path class="st0" d="M8.9,0h2.2v7.8h0.1c0.4-0.6,1-1.2,1.6-1.6c0.7-0.4,1.4-0.6,2.3-0.6c1.7,0,4.3,1,4.3,5.3v7.4h-2.2v-7.1
		c0-2-0.7-3.7-2.9-3.7c-1.5,0-2.6,1.1-3,2.3c-0.1,0.3-0.2,0.7-0.2,1.1v7.5H8.9V0z"/>
	<path class="st0" d="M27,5.5c4,0,5.1,3.6,5.1,5.9c0,0.5,0,0.8-0.1,1.1h-8.7c0.1,3.1,2,4.3,4.2,4.3c1.6,0,2.6-0.3,3.5-0.6l0.4,1.6
		c-0.8,0.4-2.2,0.8-4.1,0.8c-3.8,0-6.1-2.5-6.1-6.3C21.2,8.5,23.4,5.5,27,5.5z M30,10.8c0-1.4-0.6-3.7-3.1-3.7
		c-2.3,0-3.3,2.1-3.5,3.7H30z"/>
</g>
<g>
	<path class="st0" d="M285.2,45.2H283V31.7c0-1.6,0-2.9-0.1-4.1h2.1l0.1,2.1h0.1c0.9-1.5,2.4-2.4,4.4-2.4c3,0,5.3,2.5,5.3,6.3
		c0,4.5-2.7,6.7-5.6,6.7c-1.7,0-3.1-0.7-3.9-2h-0.1V45.2z M288.7,38.6c2.4,0,3.8-2,3.8-4.8c0-2.5-1.3-4.6-3.7-4.6
		c-1.5,0-3,1.1-3.4,2.8c-0.1,0.3-0.2,0.6-0.2,0.9V35c0,0.3,0,0.6,0.1,0.9C285.8,37.6,287.1,38.6,288.7,38.6z"/>
	<path class="st0" d="M296.5,31.5c0-1.5,0-2.7-0.1-3.9h2l0.1,2.5h0.1c0.6-1.7,2-2.8,3.5-2.8c0.3,0,0.4,0,0.6,0.1v2.1
		c-0.2-0.1-0.5-0.1-0.8-0.1c-1.6,0-2.7,1.2-3,2.9c-0.1,0.3-0.1,0.7-0.1,1.1v6.6h-2.3V31.5z"/>
	<path class="st0" d="M308.9,27.4c3.5,0,6,2.5,6,6.5c0,4.6-3.4,6.5-6.2,6.5c-3.3,0-5.9-2.4-5.9-6.5
		C302.7,29.8,305.6,27.4,308.9,27.4z M308.8,38.7c2.5,0,3.8-2.3,3.8-4.8c0-2.2-1-4.8-3.8-4.8c-2.8,0-3.8,2.6-3.8,4.8
		C305,36.4,306.3,38.7,308.8,38.7z"/>
	<path class="st0" d="M317,27.7h2.2V39c0,2.4-0.4,4-1.5,5.1c-1,1-2.6,1.4-3.9,1.4l-0.2-1.8c1-0.1,1.9-0.3,2.5-1
		c0.6-0.7,0.9-1.7,0.9-4.7V27.7z M316.7,24.2c0-0.8,0.6-1.4,1.4-1.4c0.8,0,1.4,0.6,1.4,1.4c0,0.7-0.5,1.4-1.4,1.4
		C317.2,25.5,316.7,24.9,316.7,24.2z"/>
	<path class="st0" d="M326.8,27.4c4,0,5.1,3.6,5.1,5.9c0,0.5,0,0.8-0.1,1.1h-8.7c0.1,3.1,2,4.3,4.2,4.3c1.6,0,2.6-0.3,3.5-0.6
		l0.4,1.6c-0.8,0.4-2.2,0.8-4.1,0.8c-3.8,0-6.1-2.5-6.1-6.3C320.9,30.3,323.1,27.4,326.8,27.4z M329.7,32.7c0-1.4-0.6-3.7-3.1-3.7
		c-2.3,0-3.3,2.1-3.5,3.7H329.7z"/>
	<path class="st0" d="M339.4,27.4c1.3,0,2.5,0.3,3.2,0.6l-0.5,1.7c-0.5-0.3-1.4-0.6-2.6-0.6c-2.9,0-4.4,2.1-4.4,4.7
		c0,2.9,1.9,4.7,4.3,4.7c1.3,0,2.1-0.3,2.8-0.6l0.4,1.7c-0.6,0.3-1.9,0.7-3.6,0.7c-3.8,0-6.2-2.5-6.2-6.4
		C332.7,30.2,335.4,27.4,339.4,27.4z"/>
	<path class="st0" d="M344.9,36.2v-6.8H343v-1.7h1.9v-3l2.2-0.6v3.6h3.2v1.7h-3.2v6.7c0,1.5,0.4,2.4,1.7,2.4c0.6,0,1-0.1,1.3-0.2
		l0.1,1.7c-0.4,0.2-1.1,0.3-2,0.3c-1.1,0-1.9-0.3-2.5-1C345.2,38.7,344.9,37.6,344.9,36.2z"/>
</g>
<g>
	<path class="st0" d="M65.8,16.6c0,0.1,0,0.7,0,1.8c0,0.9-0.1,1.6-0.3,2c-0.2,0.7-0.4,1.7-0.4,3c0,0.3,0,0.7,0.1,1.3
		c0,0.6,0,1,0,1.3c0,2.2-0.3,3.8-1,4.8c0.1,0.6,0.1,1.1,0.1,1.7c0,1.7-0.6,4.1-1.7,7c-0.3,0.1-0.6,0.2-0.8,0.2
		c-0.4,0-0.7-0.2-0.9-0.7c-0.2-0.5-0.4-0.9-0.5-1.3C60.5,34.9,60.3,31,60,26l0.3-0.3c-0.2-0.9-0.4-1.9-0.4-3c0-0.8,0.1-2,0.2-3.5
		c0.2-1.5,0.2-2.7,0.2-3.4c0-0.5,0-1-0.1-1.4c-1.1,2.9-1.9,7.7-2.3,14.5l-0.4,1c-0.1,0.3-0.4,0.5-0.9,0.6c-0.1-0.2-0.3-0.4-0.4-0.4
		c-0.1,0-0.3,0.1-0.5,0.4c-0.3,0.3-0.5,0.4-0.6,0.3l-0.7,0.6c0.3,0.4,1,0.4,2,0.1c0.8-0.2,1.2,0.1,1.2,0.9c0,0.7-0.1,1.6-0.5,2.8
		c-0.4,1.2-0.6,2.1-0.6,2.6c0,0.4,0.1,0.8,0.2,1.2l-3.6,0.6c-0.3-0.7-0.6-1.9-0.8-3.5c-0.2-1.6-0.5-2.8-0.8-3.5
		c0.2-0.2,0.3-0.5,0.3-0.8c0-0.2-0.1-0.6-0.3-1.1c-0.2-0.5-0.3-0.8-0.4-1.1c0-0.4-0.2-1.3-0.4-2.7c-0.2-1.2-0.3-2.1-0.3-2.7
		c0-0.3,0-0.7,0.1-0.9c0-0.2-0.1-0.6-0.4-1.1c-0.3-0.5-0.4-0.8-0.4-1c0-0.2,0.1-0.3,0.2-0.5c-0.2-0.3-0.3-0.8-0.3-1.5
		c0-0.7-0.1-1.2-0.3-1.5c-0.5,1.3-0.7,3.2-0.7,5.4c0,3.2,0,5,0,5.5l0.4,0.3l-0.4,0.3c0.3,1.2,0.4,2.8,0.4,4.8c0,3.5-0.1,5.1-0.1,4.9
		c-0.5,0.4-1.2,0.7-2,0.7c-1.1,0-1.8,0.1-2.2,0.3c-0.4-0.8-0.7-1.7-0.7-3c0-0.9,0.1-2.1,0.4-3.4c-0.5-0.9-0.7-2.1-0.7-3.6
		c0-0.4,0-1.1,0.1-2.2c0-0.9,0-1.5,0-1.9c0.3-0.2,0.5-0.4,0.5-0.6c0-0.1-0.1-0.4-0.3-0.7c-0.2-0.3-0.3-0.6-0.3-0.8
		c0-0.2,0.1-0.4,0.4-0.6L42.8,6.6c0.7-0.4,1.7-0.7,3.2-0.7c1.6,0,2.7-0.1,3.3-0.3c0.1-0.1,0.2-0.1,0.4-0.1c0.1,0,0.3,0.1,0.5,0.2
		C50.4,5.9,50.5,6,50.6,6c0.1,0,0.3-0.1,0.4-0.3l1,0.9c0.3,1.2,0.7,3.6,1,7c0.3,3,0.8,5.3,1.5,6.8c0.8-3.1,1.5-5.6,2-7.7l1-6.7
		l8-0.3c0,0.4,0.2,1.4,0.4,2.7c0.2,1.2,0.3,2.2,0.3,3c0,0.9-0.1,1.6-0.4,2.3c0.3,0.4,0.4,0.9,0.4,1.5C66.2,15.8,66.1,16.2,65.8,16.6
		z"/>
	<path class="st0" d="M84.5,38c-0.4-0.5-1-0.7-1.7-0.7c-0.3,0-0.8,0.1-1.5,0.2c-0.6,0.1-1.1,0.2-1.3,0.2c-0.9,0-1.4-0.5-1.6-1.5
		c-1.6,1.2-3.2,1.9-5,1.9c-0.7,0-1.3-0.1-1.9-0.3c-1.9-2.2-2.9-4-2.9-5.5c0-0.4,0.1-0.9,0.2-1.4c0.1-3.5,1.3-5.9,3.8-7.2
		c1.1-0.8,2.5-1.2,4.1-1.2c0.3,0,0.5,0,0.8,0.1C78,22.2,78.4,22,79,22c0.9,0,1.4,0,1.4,0l0.3,0.4c0,0,0.6-1,1.7-2.9
		c0.7-1.1,1.4-2,2.2-2.4c0,0.2,0,2.6,0,7.2c0,3-0.1,5.5-0.4,7.3c0.2,0.1,0.4,0.5,0.4,1.1c0,0.2-0.1,0.4-0.1,0.7c0,0.3,0,0.8,0.1,1.6
		c0.1,0.8,0.1,1.3,0.1,1.7C84.7,37.2,84.7,37.6,84.5,38z M82.7,17.5c-0.4,0.2-0.7,0.6-0.9,1.3c-0.2,0.7-0.6,1.1-1,1.3
		c-0.3,0.1-0.6,0.2-0.8,0.2c-0.5,0-0.8-0.4-0.9-1.3c-0.1-1.1-0.3-1.7-0.4-1.9c0.1-0.9-0.2-1.6-0.8-2c-1.2,0.3-2.2,1.7-3.1,4.3
		L74.3,19c-1,0.3-1.8,0.4-2.4,0.4c-0.7,0-1.3-0.1-2.1-0.4c0.2-2,0.5-3.2,0.7-3.8c0.5-1.3,1.4-2.2,2.6-2.6c1.1-0.2,2.7-0.4,5-0.8
		c0.6,0.2,1.2,0.4,1.9,0.8c0.1-0.1,0.3-0.2,0.7-0.5c0.3-0.2,0.5-0.4,0.5-0.6c0-0.1,0-0.3-0.1-0.5c0.2-0.1,0.5,0.1,0.8,0.4l-0.4,0.4
		c1.1,1.5,1.7,2.8,1.7,3.8C83.2,16.2,83,16.8,82.7,17.5z M78.1,24.7c-0.5,0.6-1,0.8-1.5,0.8c-0.2,1-0.4,2-0.6,3
		c-0.2,1.2-0.3,2.3-0.2,3.2c0.2,0.3,0.4,0.7,0.5,1.1c0.2,0.4,0.5,0.6,0.8,0.6c0.2,0,0.4-0.1,0.6-0.2L78.1,24.7z"/>
	<path class="st0" d="M102.2,13.1L102.2,13.1c0.2,0.9-0.1,1.7-1,2.6c-1,1-1.6,1.8-1.6,2.3c-0.5,0.7-0.7,1.7-0.7,2.9
		c0,0.2,0,0.4,0,0.8c0,0.4,0,0.7,0,0.8c0,1.3-0.4,2.4-1.1,3.1c0.9,0.9,1.5,2,1.7,3.5c0.1,0.8,0.2,2.2,0.2,4.1
		c-0.9,0.6-1.3,1.3-1.3,2.1c0,0.6,0.2,1.1,0.7,1.7c-0.2,0-0.5,0.1-1.1,0.3c-0.5,0.2-0.9,0.3-1.2,0.3c-0.6,0-1-0.3-1.3-1
		c0.2-2.7-0.1-5.1-1-7.2c-0.4,0.9-0.7,2.1-0.8,3.7c0,1.3,0,2.6,0,3.8c-0.1,1-0.2,1.9-0.4,2.6L87.4,39l1.2-12.5
		c0.7-0.1,1.5-0.8,2.5-1.9c0.9-0.9,1.8-1.3,2.7-1.2l0.8-0.8c-0.6-0.6-0.8-1.1-0.8-1.8c0-0.6,0.3-1.4,1-2.4c0.8-1.1,1.2-1.9,1.3-2.3
		c0.3-1.1,0.5-1.8,0.6-2.2c0.3-0.8,0.8-1.3,1.3-1.7c0.2,0,0.8,0.2,1.7,0.5c0.7,0.2,1.3,0.3,1.8,0.3C101.7,13.2,102,13.2,102.2,13.1z
		 M95.1,7.1L95.1,7.1c-0.7,1.3-1,3-1.1,5.2c-0.1,2.8-0.3,4.5-0.5,5.1c-0.4,1.8-1.4,3-3,3.8c-0.2,0.5-0.4,1-0.6,1.5
		c-0.3,0.6-0.7,0.9-1.1,0.9c-0.3,0-0.6-0.2-1-0.5c-0.2-6.5,0.2-12.3,1.1-17.5c0-0.8,0-1.6,0-2.4c0-1.1,0.1-2,0.4-2.6
		c0.3-0.2,0.7-0.4,1.1-0.4c0.4,0,0.8,0.1,1.1,0.4c0,0,0.6,0,1.7,0c0.8,0,1.4,0.1,1.8,0.4C95,1.2,95,1.4,95,1.6
		c0,0.5,0.3,1.2,0.8,2.1c0.5,0.9,0.8,1.5,0.8,1.9C96.6,6.2,96.1,6.7,95.1,7.1z"/>
	<path class="st0" d="M120.2,20.9c-0.2,0.4-0.4,0.9-0.4,1.5c0,0.5,0,1,0,1.5c-0.1,0.4-0.2,0.8-0.4,1.2c-0.3-0.1-0.6-0.2-0.8-0.2
		c-0.2,0-0.5,0.1-0.8,0.2c-0.3,0.2-0.5,0.2-0.6,0.2c-0.2,0-0.5-0.1-0.8-0.3l-2.2-3.6c0,1,0.2,2,0.6,2.7c0.2,0.4,0.3,0.8,0.5,1.2
		c-1.4,0.2-2.2,0.2-2.4,0l-0.4,0.4l-0.8-1.1c-0.7,0.8-0.9,1.9-0.6,3.5c0.3,1.7,0.3,2.9-0.1,3.6c0.5,0.8,1.1,1.2,1.8,1.2
		c0.3,0,0.6-0.1,0.8-0.3c0.4-0.8,0.8-1.7,1.1-2.5c0.6-1,1.1-1.5,1.8-1.5c0.5,0,1,0.3,1.7,0.8c0.8,0.3,1.1,0.7,1.1,1.1
		c0,0.3-0.2,0.7-0.6,1.3c-0.4,0.6-0.6,1.1-0.6,1.4c0,0.1,0,0.3,0.1,0.4c-0.5,0.3-1,0.9-1.4,1.6c-0.4,0.7-1,1.2-1.6,1.5
		c-0.6,0.5-1.1,0.8-1.6,0.8c-0.4,0-0.9-0.3-1.7-1c-0.7-0.6-1.4-1-2.1-1c-0.2-0.6-0.9-1.3-1.9-2.1c-1-0.8-1.7-1.6-1.9-2.5
		c0,0.1,0-0.2,0-0.8c0-0.3-0.1-0.6-0.4-0.7l0.4-0.4c-0.5,0-0.8-0.3-0.8-0.9c0-0.1,0-0.2,0-0.4c0-0.2,0.1-0.3,0.1-0.4
		c0-0.4-0.1-0.7-0.4-0.9v-1.8c0-0.9-0.2-1.6-0.5-2c0.4-2.2,0.9-4.4,1.3-6.5c0.7-2.5,1.6-3.8,2.7-3.8c0.2,0,0.3,0,0.5,0.1
		c1-0.9,2.3-1.4,3.7-1.4c1.6,0,3.2,0.6,5.1,1.7C119.2,15.3,120,18,120.2,20.9z M113.4,14.8l-0.4,0.4c-0.2,0-0.5-0.1-0.8-0.4V16
		c-0.6,0.6-0.8,1.4-0.8,2.6c0,2.1,0,3.1,0,3l1.6,0.1c0.8-0.4,1.1-1.1,1.1-2c0-0.5-0.1-1.3-0.4-2.4C113.4,16.1,113.3,15.3,113.4,14.8
		z"/>
	<path class="st0" d="M145.6,16.6c0,0.1,0,0.7,0,1.8c0,0.9-0.1,1.6-0.3,2c-0.2,0.7-0.4,1.7-0.4,3c0,0.3,0,0.7,0.1,1.3
		c0,0.6,0,1,0,1.3c0,2.2-0.3,3.8-1,4.8c0.1,0.6,0.1,1.1,0.1,1.7c0,1.7-0.6,4.1-1.7,7c-0.3,0.1-0.6,0.2-0.8,0.2
		c-0.4,0-0.7-0.2-0.9-0.7c-0.2-0.5-0.4-0.9-0.5-1.3c0.1-2.7-0.1-6.5-0.4-11.6l0.3-0.3c-0.2-0.9-0.4-1.9-0.4-3c0-0.8,0.1-2,0.2-3.5
		c0.2-1.5,0.2-2.7,0.2-3.4c0-0.5,0-1-0.1-1.4c-1.1,2.9-1.9,7.7-2.3,14.5l-0.4,1c-0.1,0.3-0.4,0.5-0.9,0.6c-0.1-0.2-0.3-0.4-0.4-0.4
		c-0.1,0-0.3,0.1-0.5,0.4c-0.3,0.3-0.5,0.4-0.6,0.3l-0.7,0.6c0.3,0.4,1,0.4,2,0.1c0.8-0.2,1.2,0.1,1.2,0.9c0,0.7-0.1,1.6-0.5,2.8
		c-0.4,1.2-0.6,2.1-0.6,2.6c0,0.4,0.1,0.8,0.2,1.2l-3.6,0.6c-0.3-0.7-0.6-1.9-0.8-3.5c-0.2-1.6-0.5-2.8-0.8-3.5
		c0.2-0.2,0.3-0.5,0.3-0.8c0-0.2-0.1-0.6-0.3-1.1c-0.2-0.5-0.3-0.8-0.4-1.1c0-0.4-0.2-1.3-0.4-2.7c-0.2-1.2-0.3-2.1-0.3-2.7
		c0-0.3,0-0.7,0.1-0.9c0-0.2-0.1-0.6-0.4-1.1c-0.3-0.5-0.4-0.8-0.4-1c0-0.2,0.1-0.3,0.2-0.5c-0.2-0.3-0.3-0.8-0.3-1.5
		c0-0.7-0.1-1.2-0.3-1.5c-0.5,1.3-0.7,3.2-0.7,5.4c0,3.2,0,5,0,5.5l0.4,0.3l-0.4,0.3c0.3,1.2,0.4,2.8,0.4,4.8c0,3.5-0.1,5.1-0.1,4.9
		c-0.5,0.4-1.2,0.7-2,0.7c-1.1,0-1.8,0.1-2.2,0.3c-0.4-0.8-0.7-1.7-0.7-3c0-0.9,0.1-2.1,0.4-3.4c-0.5-0.9-0.7-2.1-0.7-3.6
		c0-0.4,0-1.1,0.1-2.2c0-0.9,0-1.5,0-1.9c0.3-0.2,0.5-0.4,0.5-0.6c0-0.1-0.1-0.4-0.3-0.7c-0.2-0.3-0.3-0.6-0.3-0.8
		c0-0.2,0.1-0.4,0.4-0.6l-1.4-16.7c0.7-0.4,1.7-0.7,3.2-0.7c1.6,0,2.7-0.1,3.3-0.3c0.1-0.1,0.2-0.1,0.4-0.1c0.1,0,0.3,0.1,0.5,0.2
		c0.2,0.2,0.3,0.2,0.4,0.2c0.1,0,0.3-0.1,0.4-0.3l1,0.9c0.3,1.2,0.7,3.6,1,7c0.3,3,0.8,5.3,1.5,6.8c0.8-3.1,1.5-5.6,2-7.7l1-6.7
		l8-0.3c0,0.4,0.2,1.4,0.4,2.7c0.2,1.2,0.3,2.2,0.3,3c0,0.9-0.1,1.6-0.4,2.3c0.3,0.4,0.4,0.9,0.4,1.5
		C146.1,15.8,145.9,16.2,145.6,16.6z"/>
	<path class="st0" d="M163.4,13L163.4,13c0,0.1-0.7,2.7-2,7.7c-0.8,3.1-1.4,5.8-1.8,7.9c-0.4,0.9-0.9,2.3-1.3,4.2
		c-0.4,1.9-0.8,3.3-1.3,4.2c0.1,1.3-0.1,2.7-0.9,4c-0.7,1.3-1.6,2.3-2.8,3c-0.1-0.1-0.3-0.1-0.4-0.1c-0.2,0-0.5,0.1-1,0.2
		c-0.5,0.2-0.8,0.2-1.1,0.2c-0.3,0-0.6-0.1-0.8-0.3c-1.4,0-2.4-0.1-3-0.4c-0.3-1.1-0.4-1.9-0.4-2.6c0-1.1,0.3-1.6,1-1.7
		c0.7,0.3,1.4,0.4,1.9,0.4c0.8,0,1.5-0.2,2.1-0.7c0-0.2,0.2-0.4,0.4-0.8c0.2-0.3,0.3-0.6,0.3-0.7c0-0.2-0.1-0.3-0.4-0.5
		c0-0.9,0-1.7,0.1-2.6c0-1.2-0.2-2.1-0.4-2.7c0-0.1,0.2-0.4,0.4-0.9c0.1-0.4,0.2-0.7,0.2-0.9c0-0.5-0.3-0.9-0.9-1.1
		c0-1-0.2-2.4-0.6-4.1c-0.4-1.7-0.7-3-0.7-3.9c0-0.7,0-1.4,0.1-2.1c0-1-0.1-1.7-0.4-2.2c0-0.3-0.2-1-0.4-1.9
		c-0.2-0.8-0.3-1.5-0.3-1.9c0-0.5,0.1-0.9,0.4-1.2h5c0.2,0.8,0.7,3.4,1.4,8c0,0.1-0.1,0.3-0.1,0.5c0,0.3,0.1,0.8,0.3,1.5
		c0.2,0.7,0.4,1.2,0.4,1.5c0.5-1.1,0.9-2.9,1.3-5.1c0.4-2.5,0.7-4.2,1-5.2c0.2,0.1,0.4,0.1,0.6,0.1c0.3,0,0.7-0.1,1.2-0.2
		c0.6-0.1,1-0.2,1.2-0.2C162.5,12.1,163,12.4,163.4,13z"/>
	<path class="st0" d="M183.3,18.5L183.3,18.5c-0.4,0.7-0.7,1.5-0.7,2.5c0,2,0,2.9,0.1,2.7v14.8c-0.6,0.3-1.5,0.4-2.7,0.2
		c-1.2-0.2-2-0.2-2.5,0.2c-0.2,0.1-0.4,0.1-0.6,0.1c-0.3,0-0.6-0.2-0.7-0.6c-0.1-0.4-0.2-0.7-0.3-1c0.2-1.3,0.3-3.1,0.3-5.3
		c0-3.4,0.1-5.2,0.2-5.4c0.1-0.2,0.2-0.6,0.2-1c0-0.5-0.3-1.1-0.8-1.9c-0.6-0.8-0.8-1.4-0.9-1.9l-0.3,0.3c0.2,0.1,0.3,0.4,0.3,1
		c-0.4-0.2-0.7-0.6-0.8-1.3c-0.1-0.9-0.3-1.5-0.4-1.7c-0.7,2.3-1.1,5.5-1.1,9.3c0,5.1-0.1,8.2-0.2,9.4c-0.3-0.1-0.6-0.1-1-0.1
		c-0.4,0-1,0.1-1.8,0.2c-0.8,0.2-1.4,0.2-1.8,0.2c-0.6,0-1.1-0.1-1.6-0.4c0-0.2-0.1-0.5-0.2-1c-0.1-0.4-0.2-0.7-0.2-0.9
		c0-0.4,0.1-0.8,0.3-1.2c-0.2-0.3-0.3-0.7-0.2-1.2c0.2-0.8,0.3-1.2,0.3-1.2c0-0.3-0.1-0.6-0.3-0.8c0.2-0.6,0.3-1.3,0.3-2.3
		c0-1.4-0.1-2.1-0.1-2.2l-0.3-0.3c0.2-0.5,0.3-1.2,0.3-2.1c0-0.2,0-0.5,0-0.9c0-0.4-0.1-0.7-0.1-0.9c0-1.2,0.2-2.1,0.7-2.6l-0.3-0.3
		c0.2-0.3,0.3-0.7,0.3-1.2c0-0.4-0.1-1-0.2-1.8c-0.1-0.8-0.2-1.4-0.2-1.8c0-0.2,0-0.5,0.1-0.7c-0.2-1.2-0.3-2.6-0.3-4.3
		c0-2.5,0-4,0-4.5c0.2-1,0.7-1.9,1.6-2.6h4.9c0.2,1.1,0.3,2.3,0.3,3.5c0,0.8-0.1,2.1-0.2,3.7c-0.1,1.6-0.2,2.9-0.2,3.8
		c0,0.9,0,1.7,0.1,2.5c0.8,0.3,1.5,0.4,2.1,0.4c0.8,0,1.4-0.2,1.7-0.7l0.1-9.9c-0.3-1.7-0.1-2.9,0.6-3.6c0.5,0,1.1,0,1.7,0
		c0.9,0.1,1.4,0.1,1.6,0.1c0.7,0,1.3-0.1,1.9-0.4l1,0.9c-0.2,2.3-0.4,4.6-0.4,7.1C183,13.9,183.1,16.3,183.3,18.5z"/>
	<path class="st0" d="M204.5,25.7L204.5,25.7c0,0.3-0.2,1.8-0.4,4.6c-0.2,1.9-0.5,3.4-0.8,4.6c-0.2,0.1-0.4,0.1-0.6,0.1
		c-0.3,0-0.6-0.3-0.9-0.8c-0.2-0.5-0.4-0.8-0.6-0.8c-0.2,0-0.5,0.2-0.9,0.5c-0.6-0.3-1.2-0.6-1.8-1c-0.6-0.3-0.8-0.9-0.8-1.6
		l0.4-0.3c-0.3-1.7-0.6-5.4-0.8-11.2c-0.1-4.9-0.7-8.6-1.8-11.1c-0.3,0.1-0.4,0.3-0.4,0.6c0,0.5,0.1,0.7,0.1,0.7l-1-1.6
		c-0.2,0.2-0.3,0.6-0.3,1.1c0,0.7,0,1.1,0,1.2c-0.4-0.1-0.8,0.1-1,0.4c-0.2,0.3-0.4,0.6-0.6,0.9l1,16.7l-0.7,0.7l-0.3-0.3
		c-0.1,0.1-0.8,0.7-2.1,1.8c-0.8,0.7-1.7,0.9-2.7,0.8c-0.3-2.2-0.7-4.4-1-6.7c-0.4-2.8-0.6-5.2-0.6-7.1c0-5.1,1.4-8.9,4.2-11.4
		c0.3-0.1,1-0.3,2.1-0.7c0.9-0.3,1.6-0.5,2.2-0.5c0.5,0,1,0.1,1.4,0.3c0.1-0.3,0.3-0.4,0.6-0.4c0.3,0,0.6,0,0.6-0.1
		c0.3,0.6,0.9,0.8,1.7,0.8c1.9,1.3,3.2,3.2,4,5.6c0.6,1.8,1,4.1,1.1,7c0.1,2.3,0.2,4.7,0.3,7L204.5,25.7z M202.3,37.9
		c-0.3,0-0.8,0-1.3-0.1c-0.6-0.1-1-0.2-1.2-0.2c-0.6,0-1,0.2-1.3,0.6l-0.7,1.3c-0.2-0.2-0.5-0.3-1.1-0.3c-0.6,0-0.9-0.1-1.1-0.4
		c-0.1,0.2-0.3,0.4-0.6,0.4c-0.2,0-0.4,0-0.7,0c0-0.2-0.1-0.4-0.4-0.7c-0.1,0.3-0.4,0.4-0.7,0.4c-0.8,0-1.1-0.1-0.9-0.1l-0.3-0.3
		c-0.3,0.3-0.5,0.4-0.6,0.3c-0.2-0.1-0.4-0.4-0.4-0.9c1.1-0.2,1.7-0.8,2-1.6c-0.2-0.5-0.6-0.8-1.2-0.9c-0.8-0.2-1.3-0.3-1.4-0.4
		c-0.2,0-0.5,0.1-0.9,0.3c-0.4,0.1-0.8,0.2-1,0.2c-0.5,0-0.8-0.3-1-1c-0.1-0.2-0.2-0.4-0.2-0.6c0-0.3,0.3-0.6,1-0.7
		c0.6-0.1,1-0.2,1.1-0.4c0.7-0.5,1.3-1,1.9-1.5c0.8-0.6,1.6-0.9,2.3-0.8c0.2,0.4,0.4,1.1,0.5,2.1c0.1,1,0.3,1.8,0.5,2.2
		c0.4,0.7,1,1.1,1.9,1.2l0.5-1.1c0.1-0.4,0.4-0.7,0.7-0.8c0.3,0,0.7,0.2,1.3,0.5c0.6,0.4,1,0.5,1.3,0.5c0.2,0,0.4-0.1,0.7-0.2
		c0.3,0.3,0.6,0.8,0.8,1.5C202.1,37.2,202.3,37.7,202.3,37.9z"/>
	<path class="st0" d="M225.6,41.7c-0.5-0.2-1-0.3-1.6-0.3c-0.5,0-1.1,0.1-2,0.3c-0.9,0.2-1.6,0.3-1.9,0.4c-0.4-0.7-0.7-1.7-0.8-3
		c-0.3-1.9-0.5-2.9-0.6-3.2c0.1-0.2,0.2-0.4,0.2-0.5c0-0.4-0.3-0.7-0.9-1c-0.6-0.3-0.9-0.5-0.9-0.7c0-0.2,0.3-0.5,1-0.9
		c-0.2-0.2-0.3-0.6-0.4-1.3c-0.1-0.6-0.3-1.1-0.5-1.3c-0.4,0.4-1.1,0.6-2,0.8c-1,0.1-1.6,0.3-1.9,0.5c0.1,2.7-0.3,4.5-1.2,5.4
		c-0.5-0.1-0.8,0.1-1.1,0.6c-0.3,0.6-0.6,0.9-0.9,1l0.3,0.4c-0.3,0.2-0.7,0.3-1.3,0.3c-1,0-1.5-0.1-1.6-0.1l-0.3-0.9l2.9-28
		c0-1.8,0.1-3,0.2-3.6c-0.1-1.6,0.3-2.5,1-2.9c0.5,0.3,1.1,0.5,1.8,0.5c0.6,0,1.5-0.1,2.7-0.4c1.2-0.3,2.1-0.4,2.6-0.4
		c1.7,0,2.5,1.2,2.3,3.6c-0.1,1.9,0.2,4.5,1,7.6c0.9,3.4,1.3,5.9,1.3,7.6c0,0.5,0,1-0.1,1.6c-0.7,0.4-1.7,0.7-2.8,0.8
		c-1,0.1-2,0.1-3.1,0.2c-0.3-2.6-0.6-5.2-0.9-7.8c-0.4-3.1-0.8-5.7-1.3-7.7L213.5,24c-0.1,1.3,0.5,1.9,1.8,1.9
		c0.4,0,0.8-0.1,1.2-0.3c0.3-0.1,0.7,0.1,1.3,0.7c0,1.1,0.2,1.7,0.7,1.9c0.6-0.4,1.3-0.7,2.2-1.1c0.8-0.3,1.6-0.6,2.3-0.9
		c0.4,0.6,0.7,1.5,0.9,2.6c0.2,1.7,0.3,2.6,0.4,2.9c0.1,0.7,0.4,2.1,0.9,4.3c0.4,1.7,0.6,3.1,0.6,4.2
		C225.7,40.8,225.6,41.3,225.6,41.7z M213.2,40.1c0,0.2,0.1,0.4,0.1,0.6c0,1.3-0.8,2-2.3,2c-0.5-0.2-0.8-0.4-0.9-0.4
		c-0.1-0.1-0.2-0.3-0.3-0.5c0.1-0.1,0.5-0.6,1.2-1.6c0.6-0.9,1.1-1.3,1.5-1.3C212.7,38.8,213,39.2,213.2,40.1z"/>
	<path class="st0" d="M241.4,12.5c1.6,2.5,2.4,5.5,2.4,9.2c0,4.6-1.1,8.6-3.2,12.2c-0.1,0-0.7-0.2-2-0.6c-0.8-0.2-1.1-0.6-1.1-1.3
		c-0.1,0.2-0.2,0.3-0.5,0.3c-0.2,0-0.5,0-0.7,0.1c0.4-1.8,0.7-4.2,1-7.2c0.2-2.5,0.4-4.9,0.6-7.4c-0.3-0.2-0.4-0.7-0.4-1.6
		c0-0.8-0.2-1.2-0.8-1.5l-0.8,0.8l-0.8-1.9c-0.8,2.6-1.2,5.7-1.2,9.3c0,3.2,0.3,6.6,0.9,10.1c-0.4,0.2-0.8,0.7-1.4,1.6
		c-0.4,0.7-1,1.1-1.7,1c-2.4-3-3.6-7-3.6-12.1c0-4,0.8-7.5,2.5-10.4c1.6-1.6,3.6-2.4,6.2-2.4C238.7,10.9,240.2,11.5,241.4,12.5z
		 M238,39.1c-0.3,0.3-0.4,0.6-0.4,0.7c-0.3-0.1-0.8-0.2-1.6-0.3c-0.7-0.1-1.2-0.2-1.6-0.4c0-0.2-0.1-0.4-0.1-0.6
		c0-0.8,0.4-1.5,1.2-2.1c0.7-0.1,1.1,0.3,1.3,1C237.4,38.4,237.7,38.9,238,39.1z"/>
	<path class="st0" d="M261.1,13.1L261.1,13.1c0.2,0.9-0.1,1.7-1,2.6c-1,1-1.6,1.8-1.6,2.3c-0.5,0.7-0.7,1.7-0.7,2.9
		c0,0.2,0,0.4,0,0.8c0,0.4,0,0.7,0,0.8c0,1.3-0.4,2.4-1.1,3.1c0.9,0.9,1.5,2,1.7,3.5c0.1,0.8,0.2,2.2,0.2,4.1
		c-0.9,0.6-1.3,1.3-1.3,2.1c0,0.6,0.2,1.1,0.7,1.7c-0.2,0-0.5,0.1-1.1,0.3s-0.9,0.3-1.2,0.3c-0.6,0-1-0.3-1.3-1
		c0.2-2.7-0.1-5.1-1-7.2c-0.4,0.9-0.7,2.1-0.8,3.7c0,1.3,0,2.6,0,3.8c-0.1,1-0.2,1.9-0.4,2.6l-5.7-0.8l1.2-12.5
		c0.7-0.1,1.5-0.8,2.5-1.9c0.9-0.9,1.8-1.3,2.7-1.2l0.8-0.8c-0.6-0.6-0.8-1.1-0.8-1.8c0-0.6,0.3-1.4,1-2.4c0.8-1.1,1.2-1.9,1.3-2.3
		c0.3-1.1,0.5-1.8,0.6-2.2c0.3-0.8,0.8-1.3,1.3-1.7c0.2,0,0.8,0.2,1.7,0.5c0.7,0.2,1.3,0.3,1.8,0.3
		C260.6,13.2,260.8,13.2,261.1,13.1z M253.9,7.1L253.9,7.1c-0.7,1.3-1,3-1.1,5.2c-0.1,2.8-0.3,4.5-0.5,5.1c-0.4,1.8-1.4,3-3,3.8
		c-0.2,0.5-0.4,1-0.6,1.5c-0.3,0.6-0.7,0.9-1.1,0.9c-0.3,0-0.6-0.2-1-0.5c-0.2-6.5,0.2-12.3,1.1-17.5c0-0.8,0-1.6,0-2.4
		c0-1.1,0.1-2,0.4-2.6c0.3-0.2,0.7-0.4,1.1-0.4c0.4,0,0.8,0.1,1.1,0.4c0,0,0.6,0,1.7,0c0.8,0,1.4,0.1,1.8,0.4c0,0.2-0.1,0.3-0.1,0.5
		c0,0.5,0.3,1.2,0.8,2.1c0.5,0.9,0.8,1.5,0.8,1.9C255.4,6.2,254.9,6.7,253.9,7.1z"/>
</g>
<g>
	<path class="st1" d="M273.2,7.3L273.2,7.3l-0.1,0.8c-0.1,0.3-0.3,0.5-0.6,0.6c0.3,0.3,0.4,0.6,0.3,0.9c0,0.2-0.1,0.5-0.4,0.9
		c-0.2,0.4-0.3,0.6-0.4,0.8c0,0.2,0,0.4,0.1,0.5c0,0.9-0.1,1.8-0.2,2.8c-0.2,1.7-0.7,4.1-1.5,7.4c-0.8,3.4-1.3,5.8-1.5,7.4
		c-0.3,0.1-0.6,0-0.8-0.2c-0.2-0.2-0.5-0.4-0.6-0.6c0,0,0.1-0.2,0.2-0.8c0.1-0.3,0-0.6-0.2-0.7l-1.5,0.5c-0.5-1.1-0.6-2.4-0.3-3.9
		c0.5-0.1,0.8-0.5,0.8-1.1c0.1-0.7,0.2-1.1,0.6-1.2c-0.1-0.3-0.3-0.5-0.6-0.5c-0.5-0.1-0.7-0.1-0.8-0.1c0.2-4.4,0.6-10.7,1.2-19.1
		c0.5-0.3,1.2-0.3,2.1,0.1c0.9,0.4,1.6,0.4,2.1,0l0.3,0.5c0.7-0.5,1.4-0.4,2.1,0.2c0.4,0.5,0.5,1,0.4,1.7c0,0.4-0.2,1-0.5,1.7
		C273.4,6.5,273.2,7,273.2,7.3z M269.9,33.7c0.1,1.5,0.1,2.7,0,3.7c-0.2,1.4-0.6,2.5-1.2,3.3c-0.2-0.3-0.9-0.5-2-0.6l-0.5,0.3
		c-0.3-0.3-0.5-0.9-0.7-1.7c-0.2-1.1-0.4-1.7-0.5-2c-0.8,0.4-1.4,0.3-1.8-0.5l0.4-2.8c0.7,0,1.5,0.1,2.4,0.3
		C267.8,33.6,269.1,33.6,269.9,33.7z M269.1,19.3l-0.7-0.1l-1.3,1.6L269.1,19.3z M269.5,12.2c0,0.1-0.1,0.2-0.1,0.3
		c0,0.1,0,0.2,0,0.3C269.4,12.6,269.5,12.4,269.5,12.2z"/>
</g>
</svg>
